# xmcd
#
# Track frame offsets:
#	150
#	16127
#	32258
#	47467
#	65569
#	81819
#	99160
#	115065
#	130917
#	151615
#	174039
#	188912
#	207241
#	223965
#	241634
#	275160
#
# Disc length: 3674 seconds
#
# Revision: 1
# Processed by: cddbd v1.5.1PL0 Copyright (c) Steve Scherf et al.
# Submitted via: audiograbber 1.83.01
#
DISCID=c50e5810
DTITLE=Various Artist - TT255
DYEAR=1900
DGENRE=Karaoke
TTITLE0=Carolyn Dawn Johnson - Die Of A Broken Heart
TTITLE1=Terri Clark - Girls Lie Too
TTITLE2=Gretchen Wilson - Here For The Party
TTITLE3=Martina McBride - How Far
TTITLE4=Clay Walker - I Can't Sleep
TTITLE5=Josh Gracin - I Want To Live
TTITLE6=Montgomery Gentry - If You Ever Stop Loving Me
TTITLE7=Phil Vassar - In A Real Love
TTITLE8=John Michael Montgomery - Letters From Home
TTITLE9=Tim McGraw - Live Like You Were Dying
TTITLE10=Trace Adkins - Rough and Ready
TTITLE11=Andy Griggs - She Thinks She Needs Me
TTITLE12=Rushlow - Sweet Summer Rain
TTITLE13=Keith Urban - You Look Good In My Shirt
TTITLE14=Keith Urban - You'll Think Of Me
TTITLE15=data - Data Track
EXTD=
EXTT0=
EXTT1=
EXTT2=
EXTT3=
EXTT4=
EXTT5=
EXTT6=
EXTT7=
EXTT8=
EXTT9=
EXTT10=
EXTT11=
EXTT12=
EXTT13=
EXTT14=
EXTT15=
PLAYORDER=
